<?xml version="1.0" encoding="UTF-8" standalone="no"?>
<!-- Created with Inkscape (http://www.inkscape.org/) -->

<svg
   version="1.1"
   id="svg1"
   width="15.999997"
   height="16.000032"
   viewBox="0 0 15.999997 16.000032"
   sodipodi:docname="deej-logo-symbolic.svg"
   inkscape:version="1.3.2 (091e20ef0f, 2023-11-25)"
   xmlns:inkscape="http://www.inkscape.org/namespaces/inkscape"
   xmlns:sodipodi="http://sodipodi.sourceforge.net/DTD/sodipodi-0.dtd"
   xmlns="http://www.w3.org/2000/svg"
   xmlns:svg="http://www.w3.org/2000/svg">
  <sodipodi:namedview
     id="namedview1"
     pagecolor="#ffffff"
     bordercolor="#000000"
     borderopacity="0.25"
     inkscape:showpageshadow="2"
     inkscape:pageopacity="0.0"
     inkscape:pagecheckerboard="0"
     inkscape:deskcolor="#d1d1d1"
     inkscape:zoom="50.312398"
     inkscape:cx="7.9900783"
     inkscape:cy="6.4099509"
     inkscape:window-width="1920"
     inkscape:window-height="1011"
     inkscape:window-x="0"
     inkscape:window-y="0"
     inkscape:window-maximized="1"
     inkscape:current-layer="svg1" />
  <defs
     id="defs1" />
  <path
     id="path8-6"
     style="fill:#363636;fill-opacity:1;stroke-width:1.50773"
     d="M 8.503,0.4382872 A 0.45000001,0.43828721 0 0 1 8.053,0.87657438 0.45000001,0.43828721 0 0 1 7.603,0.4382872 0.45000001,0.43828721 0 0 1 8.053,0 0.45000001,0.43828721 0 0 1 8.503,0.4382872 Z m -0.9,-0.0364929 h 0.9 v 1.1780311 h -0.9 z" />
  <path
     id="path8-5"
     style="fill:#363636;fill-opacity:1;stroke-width:1.28233"
     d="M 3.01,15.682991 A 0.45000009,0.31704162 0 0 1 2.5600003,16.000033 0.45000009,0.31704162 0 0 1 2.11,15.682991 0.45000009,0.31704162 0 0 1 2.5600003,15.36595 0.45000009,0.31704162 0 0 1 3.01,15.682991 Z m -0.9,-0.788232 h 0.9 v 0.798814 h -0.9 z" />
  <path
     id="path8-9"
     style="fill:#363636;fill-opacity:1;stroke-width:1.28233"
     d="M 3.01,0.31704161 A 0.45000009,0.31704162 0 0 1 2.5600003,0.63408321 0.45000009,0.31704162 0 0 1 2.11,0.31704161 0.45000009,0.31704162 0 0 1 2.5600003,0 0.45000009,0.31704162 0 0 1 3.01,0.31704161 Z m -0.9,0.0154716 h 0.9 V 9.8336617 h -0.9 z" />
  <ellipse
     style="fill:none;stroke:#363636;stroke-width:0.707759;stroke-dasharray:none;stroke-opacity:1"
     id="path2-1"
     cx="13.449941"
     cy="9.806304"
     rx="2.2047975"
     ry="2.2394247" />
  <ellipse
     style="fill:none;stroke:#363636;stroke-width:0.707759;stroke-dasharray:none;stroke-opacity:1"
     id="path2"
     cx="2.5500562"
     cy="12.336938"
     rx="2.2047975"
     ry="2.2394247" />
  <ellipse
     style="fill:none;stroke:#363636;stroke-width:0.707759;stroke-dasharray:none;stroke-opacity:1"
     id="path2-3"
     cx="8.043335"
     cy="4.0933042"
     rx="2.2047975"
     ry="2.2394247" />
  <path
     id="path8"
     style="fill:#363636;fill-opacity:1;stroke-width:1.28233"
     d="M 13.9,0.31704161 A 0.45000001,0.31704162 0 0 1 13.45,0.63408321 0.45000001,0.31704162 0 0 1 13,0.31704161 0.45000001,0.31704162 0 0 1 13.45,0 0.45000001,0.31704162 0 0 1 13.9,0.31704161 Z m -0.9,0.004228 h 0.9 V 7.2499278 H 13 Z" />
  <path
     id="path8-2"
     style="fill:#363636;fill-opacity:1;stroke-width:1.28233"
     d="m 8.503,15.682991 a 0.45000001,0.31704162 0 0 1 -0.45,0.317042 0.45000001,0.31704162 0 0 1 -0.45,-0.317042 0.45000001,0.31704162 0 0 1 0.45,-0.317041 0.45000001,0.31704162 0 0 1 0.45,0.317041 z m -0.9,-9.397716 h 0.9 v 9.387769 h -0.9 z" />
  <path
     id="path8-3"
     style="fill:#363636;fill-opacity:1;stroke-width:1.28233"
     d="M 13.9,15.682991 A 0.45000001,0.31704162 0 0 1 13.45,16.000033 0.45000001,0.31704162 0 0 1 13,15.682991 0.45000001,0.31704162 0 0 1 13.45,15.36595 0.45000001,0.31704162 0 0 1 13.9,15.682991 Z M 13,12.337598 h 0.9 v 3.335651 H 13 Z" />
</svg>
